HIERARCHY
ROOT Hips
{
	OFFSET 0.000000 83.214638 0.000000
	CHANNELS 6 Xposition Yposition Zposition Xrotation Yrotation Zrotation
	JOINT Pelvis
	{
		OFFSET 0.000000 0.000000 0.000000
		CHANNELS 3 Xrotation Yrotation Zrotation
		JOINT LeftUpLeg
		{
			OFFSET 8.479700 -4.795502 -0.379100
			CHANNELS 3 Xrotation Yrotation Zrotation
			JOINT LeftLeg
			{
				OFFSET 0.024144 -32.555107 0.112900
				CHANNELS 3 Xrotation Yrotation Zrotation
				JOINT LeftFoot
				{
					OFFSET -0.024144 -32.638630 -3.012600
					CHANNELS 3 Xrotation Yrotation Zrotation
					JOINT LeftToeBase
					{
						OFFSET 0.970200 -13.225400 11.864200
						CHANNELS 3 Xrotation Yrotation Zrotation
						End Site
						{
							OFFSET 0.000000 12.319262 0.000000
						}
					}
					JOINT LFootTongue
					{
						OFFSET 1.142400 -1.059800 6.665200
						CHANNELS 3 Xrotation Yrotation Zrotation
						End Site
						{
							OFFSET 0.000000 12.319262 0.000000
						}
					}
				}
				JOINT LeftPantLeg
				{
					OFFSET 0.918482 -16.533964 -2.284700
					CHANNELS 3 Xrotation Yrotation Zrotation
					End Site
					{
						OFFSET 0.350399 24.744368 0.000000
					}
				}
			}
		}
		JOINT RightUpLeg
		{
			OFFSET -8.479700 -4.795502 -0.379100
			CHANNELS 3 Xrotation Yrotation Zrotation
			JOINT RightLeg
			{
				OFFSET -0.023144 -32.555092 0.112900
				CHANNELS 3 Xrotation Yrotation Zrotation
				JOINT RightFoot
				{
					OFFSET 0.023144 -32.638641 -3.012700
					CHANNELS 3 Xrotation Yrotation Zrotation
					JOINT RightToeBase
					{
						OFFSET -0.970200 -13.225400 11.864200
						CHANNELS 3 Xrotation Yrotation Zrotation
						End Site
						{
							OFFSET 0.000000 12.319244 0.000000
						}
					}
					JOINT RFootTongue
					{
						OFFSET -1.142200 -1.059800 6.665200
						CHANNELS 3 Xrotation Yrotation Zrotation
						End Site
						{
							OFFSET 0.000000 12.319243 0.000000
						}
					}
				}
				JOINT RightPantLeg
				{
					OFFSET -0.919482 -16.533978 -2.284800
					CHANNELS 3 Xrotation Yrotation Zrotation
					End Site
					{
						OFFSET -0.350400 24.744419 0.000000
					}
				}
			}
		}
	}
	JOINT Spine
	{
		OFFSET 0.000000 7.722000 1.166200
		CHANNELS 3 Xrotation Yrotation Zrotation
		JOINT Spine1
		{
			OFFSET 0.000000 12.024101 0.248800
			CHANNELS 3 Xrotation Yrotation Zrotation
			JOINT Spine2
			{
				OFFSET 0.000000 11.502998 -0.491200
				CHANNELS 3 Xrotation Yrotation Zrotation
				JOINT Neck
				{
					OFFSET 0.000000 18.430702 -3.123100
					CHANNELS 3 Xrotation Yrotation Zrotation
					JOINT Head
					{
						OFFSET 0.000000 9.051102 1.034000
						CHANNELS 3 Xrotation Yrotation Zrotation
						JOINT HairB
						{
							OFFSET 0.208400 24.786102 24.822300
							CHANNELS 3 Xrotation Yrotation Zrotation
							End Site
							{
								OFFSET 0.000000 32.263779 0.000000
							}
						}
						JOINT HairA
						{
							OFFSET -7.081100 24.428299 23.196600
							CHANNELS 3 Xrotation Yrotation Zrotation
							End Site
							{
								OFFSET 0.000000 32.263779 0.000000
							}
						}
						JOINT Hat
						{
							OFFSET 16.728800 15.048294 -15.439601
							CHANNELS 3 Xrotation Yrotation Zrotation
							End Site
							{
								OFFSET 0.000000 32.263779 0.000000
							}
						}
					}
				}
				JOINT LeftShoulder
				{
					OFFSET 6.197800 13.665199 -4.064700
					CHANNELS 3 Xrotation Yrotation Zrotation
					JOINT LeftArm
					{
						OFFSET 7.778100 -0.187103 -1.709300
						CHANNELS 3 Xrotation Yrotation Zrotation
						JOINT LeftForeArm
						{
							OFFSET 22.049376 0.000000 0.000000
							CHANNELS 3 Xrotation Yrotation Zrotation
							JOINT LeftHand
							{
								OFFSET 23.009392 0.000000 0.000000
								CHANNELS 3 Xrotation Yrotation Zrotation
								JOINT LeftHandThumb1
								{
									OFFSET 3.507191 -2.063065 3.133727
									CHANNELS 3 Xrotation Yrotation Zrotation
									JOINT LeftHandThumb2
									{
										OFFSET 3.101337 -1.790558 1.790558
										CHANNELS 3 Xrotation Yrotation Zrotation
										JOINT LeftHandThumb3
										{
											OFFSET 3.058640 -1.765907 1.765906
											CHANNELS 3 Xrotation Yrotation Zrotation
											End Site
											{
												OFFSET -0.415260 3.926476 -0.049563
											}
										}
									}
								}
								JOINT LeftHandIndex1
								{
									OFFSET 11.334419 -0.901459 3.706815
									CHANNELS 3 Xrotation Yrotation Zrotation
									JOINT LeftHandIndex2
									{
										OFFSET 3.283112 0.000000 0.000000
										CHANNELS 3 Xrotation Yrotation Zrotation
										JOINT LeftHandIndex3
										{
											OFFSET 3.323853 0.000000 0.000000
											CHANNELS 3 Xrotation Yrotation Zrotation
											End Site
											{
												OFFSET -1.135597 3.097809 0.402452
											}
										}
									}
								}
								JOINT LeftHandMiddle1
								{
									OFFSET 11.335861 0.000000 0.000000
									CHANNELS 3 Xrotation Yrotation Zrotation
									JOINT LeftHandMiddle2
									{
										OFFSET 3.410492 0.000000 0.000000
										CHANNELS 3 Xrotation Yrotation Zrotation
										JOINT LeftHandMiddle3
										{
											OFFSET 3.312172 0.000000 0.000000
											CHANNELS 3 Xrotation Yrotation Zrotation
											End Site
											{
												OFFSET -1.150200 3.080154 0.400270
											}
										}
									}
								}
								JOINT LeftHandRing1
								{
									OFFSET 11.514786 -0.013176 -3.003090
									CHANNELS 3 Xrotation Yrotation Zrotation
									JOINT LeftHandRing2
									{
										OFFSET 3.053307 0.000000 0.000000
										CHANNELS 3 Xrotation Yrotation Zrotation
										JOINT LeftHandRing3
										{
											OFFSET 3.295807 0.000000 0.000000
											CHANNELS 3 Xrotation Yrotation Zrotation
											End Site
											{
												OFFSET -1.281006 3.013344 0.375733
											}
										}
									}
								}
								JOINT LeftHandPinky1
								{
									OFFSET 10.518692 -0.960396 -5.730441
									CHANNELS 3 Xrotation Yrotation Zrotation
									JOINT LeftHandPinky2
									{
										OFFSET 2.861649 0.000000 0.000000
										CHANNELS 3 Xrotation Yrotation Zrotation
										JOINT LeftHandPinky3
										{
											OFFSET 2.863380 0.000000 0.000000
											CHANNELS 3 Xrotation Yrotation Zrotation
											End Site
											{
												OFFSET -0.843597 2.711159 0.369971
											}
										}
									}
								}
							}
							JOINT LSleeve
							{
								OFFSET 6.676277 -0.344902 -1.011730
								CHANNELS 3 Xrotation Yrotation Zrotation
								End Site
								{
									OFFSET 0.000000 14.885353 0.000000
								}
							}
						}
					}
				}
				JOINT RightShoulder
				{
					OFFSET -6.197800 13.665199 -4.064700
					CHANNELS 3 Xrotation Yrotation Zrotation
					JOINT RightArm
					{
						OFFSET -7.778100 -0.187103 -1.709300
						CHANNELS 3 Xrotation Yrotation Zrotation
						JOINT RightForeArm
						{
							OFFSET -22.049376 0.000000 0.000000
							CHANNELS 3 Xrotation Yrotation Zrotation
							JOINT RightHand
							{
								OFFSET -23.009392 0.000000 0.000000
								CHANNELS 3 Xrotation Yrotation Zrotation
								JOINT RightHandThumb1
								{
									OFFSET -3.507191 -2.063065 3.133727
									CHANNELS 3 Xrotation Yrotation Zrotation
									JOINT RightHandThumb2
									{
										OFFSET -3.101337 -1.790558 1.790558
										CHANNELS 3 Xrotation Yrotation Zrotation
										JOINT RightHandThumb3
										{
											OFFSET -3.058640 -1.765907 1.765906
											CHANNELS 3 Xrotation Yrotation Zrotation
											End Site
											{
												OFFSET 0.415260 3.926476 -0.049563
											}
										}
									}
								}
								JOINT RightHandIndex1
								{
									OFFSET -11.334419 -0.901459 3.706815
									CHANNELS 3 Xrotation Yrotation Zrotation
									JOINT RightHandIndex2
									{
										OFFSET -3.283112 0.000000 0.000000
										CHANNELS 3 Xrotation Yrotation Zrotation
										JOINT RightHandIndex3
										{
											OFFSET -3.323853 0.000000 0.000000
											CHANNELS 3 Xrotation Yrotation Zrotation
											End Site
											{
												OFFSET 1.135597 3.097809 0.402452
											}
										}
									}
								}
								JOINT RightHandMiddle1
								{
									OFFSET -11.335861 0.000000 0.000000
									CHANNELS 3 Xrotation Yrotation Zrotation
									JOINT RightHandMiddle2
									{
										OFFSET -3.410492 0.000000 0.000000
										CHANNELS 3 Xrotation Yrotation Zrotation
										JOINT RightHandMiddle3
										{
											OFFSET -3.312172 0.000000 0.000000
											CHANNELS 3 Xrotation Yrotation Zrotation
											End Site
											{
												OFFSET 1.150200 3.080154 0.400270
											}
										}
									}
								}
								JOINT RightHandRing1
								{
									OFFSET -11.514786 -0.013176 -3.003090
									CHANNELS 3 Xrotation Yrotation Zrotation
									JOINT RightHandRing2
									{
										OFFSET -3.053307 0.000000 0.000000
										CHANNELS 3 Xrotation Yrotation Zrotation
										JOINT RightHandRing3
										{
											OFFSET -3.295807 0.000000 0.000000
											CHANNELS 3 Xrotation Yrotation Zrotation
											End Site
											{
												OFFSET 1.281006 3.013344 0.375733
											}
										}
									}
								}
								JOINT RightHandPinky1
								{
									OFFSET -10.518692 -0.960396 -5.730441
									CHANNELS 3 Xrotation Yrotation Zrotation
									JOINT RightHandPinky2
									{
										OFFSET -2.861649 0.000000 0.000000
										CHANNELS 3 Xrotation Yrotation Zrotation
										JOINT RightHandPinky3
										{
											OFFSET -2.863380 0.000000 0.000000
											CHANNELS 3 Xrotation Yrotation Zrotation
											End Site
											{
												OFFSET 0.843597 2.711159 0.369971
											}
										}
									}
								}
							}
							JOINT RSleeve
							{
								OFFSET -6.676277 -0.344902 -1.011730
								CHANNELS 3 Xrotation Yrotation Zrotation
								End Site
								{
									OFFSET 0.000000 14.885353 0.000000
								}
							}
						}
					}
				}
				JOINT Backpack
				{
					OFFSET 0.000000 -2.471497 36.677502
					CHANNELS 3 Xrotation Yrotation Zrotation
					End Site
					{
						OFFSET 0.000000 20.427315 0.000000
					}
				}
				JOINT Hood
				{
					OFFSET 0.000000 18.754097 -10.431000
					CHANNELS 3 Xrotation Yrotation Zrotation
					JOINT Hood1
					{
						OFFSET 0.000000 -5.011002 -7.685901
						CHANNELS 3 Xrotation Yrotation Zrotation
						End Site
						{
							OFFSET 0.000000 9.175140 0.000000
						}
					}
				}
				JOINT LHoodieString
				{
					OFFSET 5.250500 16.397697 3.089900
					CHANNELS 3 Xrotation Yrotation Zrotation
					JOINT LHoodieString1
					{
						OFFSET 0.257700 -6.364304 3.694600
						CHANNELS 3 Xrotation Yrotation Zrotation
						JOINT LHoodieString2
						{
							OFFSET 0.000000 -9.643799 2.679100
							CHANNELS 3 Xrotation Yrotation Zrotation
							End Site
							{
								OFFSET 0.000000 10.009018 0.000000
							}
						}
					}
				}
				JOINT RHoodieString
				{
					OFFSET -5.250500 16.397697 3.089900
					CHANNELS 3 Xrotation Yrotation Zrotation
					JOINT RHoodieString1
					{
						OFFSET -0.257700 -6.364304 3.694600
						CHANNELS 3 Xrotation Yrotation Zrotation
						JOINT RHoodieString2
						{
							OFFSET 0.000000 -9.643799 2.679100
							CHANNELS 3 Xrotation Yrotation Zrotation
							End Site
							{
								OFFSET 0.000000 10.009018 0.000000
							}
						}
					}
				}
			}
			JOINT LBackpack_Strap
			{
				OFFSET 15.223200 -7.719803 -6.610900
				CHANNELS 3 Xrotation Yrotation Zrotation
				End Site
				{
					OFFSET 0.000000 16.040596 0.000000
				}
			}
			JOINT RBackpack_Strap
			{
				OFFSET -15.223000 -7.719803 -6.610900
				CHANNELS 3 Xrotation Yrotation Zrotation
				End Site
				{
					OFFSET 0.000000 16.040596 0.000000
				}
			}
		}
	}
	JOINT BoyFacialAnim_Joint
	{
		OFFSET 1.000000 -82.208099 -1.550900
		CHANNELS 3 Xrotation Yrotation Zrotation
		End Site
		{
			OFFSET 0.000000 30.012791 0.000000
		}
	}
}
MOTION
Frames: 4
Frame Time: 0.033333
-0.062449 79.791580 -0.195927 -16.913340 -39.021806 -9.283399 0.000000 -0.000000 -0.000000 -20.967863 43.377387 27.968168 22.769160 0.475486 -0.690245 2.528453 1.284863 -3.079770 0.000000 -0.000000 0.000000 0.000000 -0.000000 0.000000 -0.000000 0.000001 0.000000 4.178825 5.179861 -5.769859 30.863490 -0.336264 1.074246 -20.486603 -17.432267 4.315763 0.000000 0.000002 -0.000000 0.000000 0.000002 -0.000000 0.000001 0.000001 0.000001 7.991455 -0.041853 -0.261327 16.413464 -0.125527 -0.745992 16.413551 -0.188881 -0.708221 0.367406 7.480964 0.837544 -6.982126 21.597275 11.882997 -0.000000 -0.000000 -0.000000 -0.000000 -0.000000 -0.000000 -0.000000 -0.000000 -0.000000 -37.571074 -4.822518 1.545821 -41.628435 -7.015788 -61.684388 0.000057 -64.995848 0.000067 -119.359618 1.120096 32.550209 4.709219 9.560364 3.111991 19.473178 -1.474920 7.636910 0.000002 0.000002 -0.000001 -0.212819 3.933717 -36.747135 2.942150 5.078910 -60.144597 0.000000 -0.000000 -0.000002 0.405913 5.507027 -52.453162 3.387138 5.308631 -65.057477 0.000010 0.000001 0.000002 -0.074373 5.736777 -61.061434 4.055041 5.569502 -72.094907 -0.000000 0.000000 -0.000004 -6.565573 4.545122 -72.425236 3.299629 5.267227 -64.107828 0.000002 0.000000 0.000005 -0.000000 -0.000001 0.000000 -41.176301 -8.605652 -9.942316 -46.819717 58.242956 100.948714 0.000620 98.442956 -0.000618 -52.463120 -17.216627 -29.273108 8.377145 -4.904136 11.021995 21.620216 -18.183895 -18.379214 0.000003 -0.000000 -0.000001 -0.920040 1.683581 12.434972 0.748120 -2.533484 32.898286 0.000001 0.000001 0.000004 3.413054 -7.186267 51.650256 6.296812 -4.359577 110.634660 0.000000 0.000001 -0.000000 -3.351105 -2.599090 57.010684 5.440858 -4.590885 99.698147 0.000000 0.000001 0.000006 -4.003755 -3.300473 64.594103 4.058846 -4.618676 82.610516 -0.000000 0.000000 -0.000001 -0.000001 0.000000 0.000002 0.000002 -0.000000 -0.000000 0.000002 -0.000000 -0.000000 0.000002 -0.000000 -0.000000 0.000002 -0.000000 -0.000000 0.000002 -0.000000 -0.000000 -0.000001 0.000002 -0.000001 0.000002 -0.000000 -0.000000 0.000002 -0.000000 -0.000000 -0.000001 0.000002 -0.000001 0.000001 0.000001 -0.000000 0.000001 0.000001 -0.000000 0.000000 -0.000000 -0.000000 
-0.372293 79.779556 -0.264545 -16.721925 -38.988933 -8.980523 0.000001 -0.000002 -0.000001 -20.609778 43.109419 27.588819 22.397512 0.473617 -0.591404 2.831114 1.563881 -3.420679 -0.000000 0.000000 -0.000000 -0.000000 0.000000 0.000000 0.000000 0.000001 -0.000000 3.155119 5.972734 -5.515784 32.437719 -1.355051 1.075416 -19.007559 -17.208354 5.098711 0.000000 0.000001 0.000000 0.000000 0.000001 0.000000 -0.000002 0.000001 0.000001 8.004851 -0.176385 -0.595738 16.262479 -0.137086 -0.723253 16.268817 -0.204542 -0.703306 0.242160 7.471963 0.819944 -6.805127 21.544963 11.788174 0.000001 0.000000 0.000000 0.000001 0.000000 0.000000 0.000001 0.000000 0.000000 -37.562373 -4.724262 1.673874 -41.713645 -7.373264 -61.900830 -0.000016 -64.286704 -0.000014 -119.464257 1.160245 32.087915 4.709221 9.560363 3.111991 19.473178 -1.474918 7.636911 0.000001 -0.000000 0.000000 -0.212819 3.933709 -36.747131 2.942147 5.078912 -60.144604 -0.000003 -0.000003 -0.000000 0.405914 5.507024 -52.453169 3.387139 5.308634 -65.057470 0.000003 0.000000 -0.000001 -0.074372 5.736776 -61.061440 4.055042 5.569502 -72.094901 -0.000000 -0.000001 -0.000000 -6.565575 4.545125 -72.425236 3.299627 5.267222 -64.107835 -0.000001 0.000000 -0.000002 -0.000002 -0.000003 -0.000001 -41.201193 -8.696199 -10.084284 -46.894713 58.169538 101.148340 0.000879 98.079925 -0.000868 -52.401959 -17.020159 -28.968758 8.866789 -4.693270 11.280501 21.739731 -17.995508 -18.379091 0.000001 0.000000 0.000000 -0.890802 1.773435 11.905460 0.751179 -2.538217 32.967639 0.000001 -0.000001 0.000005 3.363808 -7.154708 51.486823 6.298998 -4.358762 110.663387 0.000001 0.000001 -0.000000 -3.353437 -2.528367 56.510724 5.455293 -4.588390 99.878450 0.000002 0.000001 0.000002 -4.007158 -3.270282 64.396758 3.990588 -4.609344 81.761920 -0.000001 -0.000002 -0.000002 0.000001 0.000001 -0.000000 -0.000000 -0.000001 0.000002 -0.000000 -0.000001 0.000002 -0.000000 -0.000001 0.000002 -0.000000 -0.000001 0.000002 -0.000000 -0.000001 0.000001 -0.000000 -0.000001 0.000001 -0.000000 -0.000001 0.000002 -0.000000 -0.000001 0.000001 -0.000000 -0.000001 0.000001 -0.000000 0.000005 -0.000001 -0.000000 0.000005 -0.000001 0.000001 -0.000002 -0.000001 
-1.000396 79.676865 -0.634570 -16.132244 -38.651303 -8.365985 0.000001 0.000000 -0.000000 -20.675898 42.220893 27.314290 22.020658 0.934806 -0.391581 3.508040 1.477861 -4.018771 -0.000000 -0.000000 -0.000000 -0.000000 -0.000000 -0.000000 0.000000 0.000001 -0.000000 1.593574 6.647462 -4.783279 34.535287 -2.774638 1.076824 -17.835603 -16.913287 5.619406 0.000000 -0.000001 -0.000000 0.000000 -0.000001 -0.000000 0.000001 -0.000001 0.000001 8.647224 -0.579532 -0.865945 15.854594 -0.175480 -0.717433 15.921765 -0.250300 -0.710790 -0.369475 7.427488 0.783690 -6.577327 21.383934 11.376876 0.000000 -0.000001 0.000000 0.000000 -0.000001 0.000000 0.000000 -0.000001 0.000000 -37.548668 -4.521461 1.942085 -42.071588 -7.929567 -62.169898 0.000015 -63.567703 0.000012 -120.138178 1.051979 31.245325 4.709222 9.560364 3.111992 19.473177 -1.474918 7.636908 0.000002 -0.000004 -0.000001 -0.212818 3.933719 -36.747135 2.942149 5.078912 -60.144597 0.000002 0.000001 -0.000002 0.405914 5.507028 -52.453158 3.387139 5.308634 -65.057470 -0.000003 -0.000001 0.000000 -0.074371 5.736772 -61.061434 4.055036 5.569503 -72.094901 -0.000003 -0.000001 -0.000001 -6.565574 4.545125 -72.425243 3.299629 5.267223 -64.107835 -0.000001 -0.000001 -0.000000 -0.000002 -0.000002 0.000001 -41.284874 -8.828626 -10.444776 -47.468271 57.954900 101.574598 -0.000032 97.906281 0.000005 -51.987001 -17.100446 -28.825847 9.200592 -4.511810 11.621871 21.177372 -18.089519 -18.583295 -0.000001 -0.000000 0.000000 -0.869204 2.051490 11.084063 0.774538 -2.573819 33.491242 -0.000001 0.000001 0.000004 3.322948 -7.085724 52.370305 6.301819 -4.357699 110.700455 0.000002 0.000000 0.000003 -3.362840 -2.493247 56.303698 5.454814 -4.588499 99.872495 0.000000 -0.000001 0.000004 -4.010445 -3.239912 64.198430 3.925343 -4.599451 80.949196 -0.000001 0.000000 -0.000001 0.000002 -0.000001 -0.000001 0.000001 0.000001 0.000000 0.000001 0.000001 0.000000 0.000001 0.000001 0.000000 0.000001 0.000001 0.000000 0.000001 0.000001 0.000000 -0.000000 -0.000001 0.000001 0.000001 0.000001 0.000000 0.000001 0.000001 0.000000 -0.000000 -0.000001 0.000001 0.000000 0.000000 -0.000000 0.000000 0.000000 -0.000000 0.000001 0.000000 -0.000000 
-1.773156 79.155540 -1.297188 -15.659713 -38.050519 -8.396346 0.000000 -0.000001 -0.000000 -23.600718 40.660700 29.703212 24.477458 0.550656 -0.332296 3.181255 1.415550 -4.551298 -0.000000 0.000000 0.000000 -0.000000 0.000000 0.000000 0.000000 0.000001 -0.000000 -0.836920 6.979589 -3.053786 38.368506 -4.256105 1.085094 -17.989986 -16.599178 5.808928 -0.000000 0.000001 -0.000000 -0.000000 0.000001 -0.000000 0.000001 -0.000001 0.000001 10.407123 -1.069253 -0.484854 15.335361 -0.225810 -0.778273 15.523526 -0.319405 -0.787680 -1.706127 7.366061 0.609048 -6.643082 21.040765 10.573570 -0.000001 0.000002 -0.000000 -0.000001 0.000002 -0.000000 -0.000001 0.000002 -0.000000 -37.561741 -4.478033 2.165098 -43.040591 -8.201869 -62.180007 0.000105 -64.057284 0.000100 -121.022237 0.489482 30.748347 4.709220 9.560365 3.111991 19.473178 -1.474915 7.636910 -0.000001 -0.000002 0.000001 -0.212819 3.933707 -36.747131 2.942150 5.078911 -60.144597 -0.000002 0.000000 -0.000002 0.405912 5.507024 -52.453158 3.387139 5.308634 -65.057470 0.000004 0.000001 0.000000 -0.074372 5.736776 -61.061440 4.055044 5.569502 -72.094907 -0.000002 -0.000001 -0.000002 -6.565576 4.545118 -72.425236 3.299633 5.267223 -64.107835 -0.000002 -0.000003 -0.000002 -0.000002 0.000001 -0.000002 -41.432406 -8.759835 -10.936004 -48.160767 57.585851 101.083501 0.000216 98.620494 -0.000228 -51.489794 -17.397820 -29.119217 9.308257 -3.970650 12.118082 20.316155 -18.030619 -18.941443 0.000004 -0.000000 0.000001 -0.882785 2.363376 10.631599 0.819526 -2.640437 34.479819 -0.000001 0.000000 0.000002 3.296891 -7.024109 53.464511 6.301960 -4.357653 110.702456 0.000001 0.000001 -0.000005 -3.377069 -2.533465 56.660797 5.438034 -4.591368 99.662671 -0.000000 0.000001 0.000004 -4.013102 -3.297063 64.601507 3.877328 -4.591567 80.349860 0.000001 -0.000000 0.000007 -0.000000 -0.000002 -0.000001 0.000001 0.000001 0.000000 0.000001 0.000001 0.000000 0.000001 0.000001 0.000000 0.000001 0.000001 0.000000 0.000001 0.000001 -0.000001 -0.000000 0.000003 -0.000001 0.000001 0.000001 0.000000 0.000001 0.000001 -0.000001 -0.000000 0.000003 -0.000001 0.000000 0.000001 -0.000000 0.000000 0.000001 -0.000000 0.000000 -0.000001 -0.000000 
